<svg xmlns="http://www.w3.org/2000/svg" viewBox="0 0 128 128" role="img" aria-hidden="true">
  <defs>
    <clipPath id="badge">
      <circle cx="64" cy="64" r="58"/>
    </clipPath>
    <linearGradient id="rim" x1="0.12" y1="0.08" x2="0.88" y2="0.92">
      <stop offset="0" stop-color="#5d5d5d"/>
      <stop offset="0.48" stop-color="#232323"/>
      <stop offset="1" stop-color="#101010"/>
    </linearGradient>
  </defs>

  <circle cx="64" cy="64" r="62" fill="url(#rim)"/>
  <circle cx="64" cy="64" r="58.4" fill="#040404"/>

  <g clip-path="url(#badge)">
    <rect width="128" height="128" fill="#050505"/>
    <rect x="4" y="0" width="16" height="128" fill="#f35a2b"/>
    <rect x="20" y="0" width="16" height="128" fill="#f3d449"/>
    <rect x="36" y="0" width="16" height="128" fill="#65b8be"/>
    <rect x="52" y="0" width="16" height="128" fill="#ecd9a8"/>
    <rect x="68" y="0" width="16" height="128" fill="#d9c28b"/>
    <rect x="84" y="0" width="16" height="128" fill="#f2cf35"/>
    <rect x="100" y="0" width="20" height="128" fill="#5aa6ad"/>

    <path d="M-2 0h18v128H-2Z" fill="#111"/>
    <path d="M114 0h16v128h-16Z" fill="#111"/>
    <path d="M0 0h128v16H0Z" fill="#060606"/>

    <text
      x="64"
      y="26"
      fill="#121212"
      font-family="Cooper Black, Bookman Old Style, Georgia, serif"
      font-size="19"
      font-weight="900"
      letter-spacing="1.4"
      text-anchor="middle"
    >BLONDIE</text>

    <g opacity="0.96" fill="#0d0d0d">
      <path d="M6 112c8-20 16-34 28-46-10 4-17 10-24 18L6 112Z"/>
      <path d="M122 112c-8-20-16-34-28-46 10 4 17 10 24 18l4 28Z"/>
      <path d="M24 40c8-10 22-17 40-17 16 0 31 7 41 18-6-17-21-28-41-28-20 0-34 10-40 27Z"/>
    </g>

    <g fill="none" stroke="#090909" stroke-linecap="round" stroke-linejoin="round">
      <path d="M30 47c8-8 19-13 34-13 15 0 26 4 34 13" stroke-width="3.1"/>
      <path d="M34 57c7-4 15-5 21-1" stroke-width="2.8"/>
      <path d="M73 56c6-4 14-3 21 1" stroke-width="2.8"/>
      <path d="M63 42c-3 13-3 26 0 39" stroke-width="2.7"/>
      <path d="M49 93c10 6 22 6 31 0" stroke-width="2.8"/>
      <path d="M33 106c10-15 20-24 31-28" stroke-width="3"/>
      <path d="M95 106c-10-15-20-24-31-28" stroke-width="3"/>
      <path d="M48 73c2 5 7 8 16 8 9 0 14-3 16-8" stroke-width="2.6"/>
      <path d="M59 60c-1 6-2 9-5 14" stroke-width="2.2"/>
      <path d="M69 60c1 6 2 9 5 14" stroke-width="2.2"/>
      <path d="M43 36c5-7 13-10 21-10" stroke-width="2.6"/>
      <path d="M85 36c-5-7-13-10-21-10" stroke-width="2.6"/>
      <path d="M26 67c5-7 10-11 17-14" stroke-width="2.5"/>
      <path d="M102 67c-5-7-10-11-17-14" stroke-width="2.5"/>
    </g>

    <g fill="#080808">
      <ellipse cx="47" cy="58" rx="4.6" ry="3.1"/>
      <ellipse cx="81" cy="58" rx="4.6" ry="3.1"/>
    </g>

    <path d="M53 83c5 4 17 4 22 0 0 8-4 13-11 13s-11-5-11-13Z" fill="#df3128"/>
    <path d="M56 85c4 2 12 2 16 0" fill="none" stroke="#f4a29e" stroke-linecap="round" stroke-width="1.5"/>

    <g opacity="0.85" fill="#0c0c0c">
      <path d="M11 104c4-24 10-39 22-53-9 5-17 12-23 22L11 104Z"/>
      <path d="M117 104c-4-24-10-39-22-53 9 5 17 12 23 22l-1 31Z"/>
      <path d="M45 24c-8 3-14 9-18 17 8-8 18-12 28-12L45 24Z"/>
      <path d="M83 24c8 3 14 9 18 17-8-8-18-12-28-12l10-5Z"/>
    </g>
  </g>

  <path
    d="M77 8c17 4 28 10 34 21-11-5-22-8-36-9 0-4 1-8 2-12Z"
    fill="#ffffff"
    opacity="0.9"
  />
</svg>
